<svg width="108" height="108" viewBox="0 0 108 108" fill="none" xmlns="http://www.w3.org/2000/svg">
<g clip-path="url(#clip0_823_3946)" filter="url(#filter0_d_823_3946)">
<path fill-rule="evenodd" clip-rule="evenodd" d="M46.9623 68.5831L39.3957 33.6581C39.3279 33.3491 39.3499 33.0272 39.4592 32.7303C39.5684 32.4334 39.7602 32.174 40.0121 31.9826C40.2639 31.7912 40.5653 31.6758 40.8806 31.65C41.1959 31.6243 41.5119 31.6893 41.7915 31.8373L72.1665 47.8498C72.44 47.9939 72.6645 48.2159 72.8118 48.4876C72.959 48.7593 73.0224 49.0686 72.9939 49.3764C72.9653 49.6842 72.8461 49.9765 72.6514 50.2166C72.4567 50.4566 72.1951 50.6334 71.8998 50.7248L57.9582 55.029C57.439 55.1894 57.0045 55.5489 56.7498 56.029L49.8748 68.9873C49.7254 69.2721 49.4917 69.5038 49.2056 69.6508C48.9196 69.7979 48.5951 69.8531 48.2765 69.8088C47.958 69.7646 47.6608 69.6232 47.4256 69.4038C47.1904 69.1845 47.0286 68.8979 46.9623 68.5831Z" fill="white"/>
<path fill-rule="evenodd" clip-rule="evenodd" d="M75.1957 4.80367C61.6041 -1.4005 48.4374 -0.617163 40.3333 1.7245C44.5333 2.26617 51.1749 3.287 55.7166 5.34117C59.4874 7.04117 72.8083 14.1745 76.0332 15.6912C79.2541 17.2037 88.6791 20.6745 92.1458 22.5245C94.9208 24.012 98.1541 27.412 99.4207 28.9245C96.8666 23.7662 90.2916 11.687 75.1999 4.7995L75.1957 4.80367Z" fill="url(#paint0_linear_823_3946)"/>
<path d="M39.1585 17.2824C42.7713 17.2824 45.7002 14.3536 45.7002 10.7407C45.7002 7.12784 42.7713 4.19904 39.1585 4.19904C35.5456 4.19904 32.6168 7.12784 32.6168 10.7407C32.6168 14.3536 35.5456 17.2824 39.1585 17.2824Z" fill="url(#paint1_radial_823_3946)"/>
<path d="M95.4126 58.4039C96.8693 58.4039 98.0501 57.2231 98.0501 55.7664C98.0501 54.3098 96.8693 53.1289 95.4126 53.1289C93.956 53.1289 92.7751 54.3098 92.7751 55.7664C92.7751 57.2231 93.956 58.4039 95.4126 58.4039Z" fill="url(#paint2_radial_823_3946)"/>
<path d="M88.4789 50.1C89.6111 50.1 90.529 49.1822 90.529 48.05C90.529 46.9178 89.6111 46 88.4789 46C87.3468 46 86.429 46.9178 86.429 48.05C86.429 49.1822 87.3468 50.1 88.4789 50.1Z" fill="url(#paint3_radial_823_3946)"/>
<path d="M80.9582 74.3265C83.7633 74.3265 86.0374 72.0525 86.0374 69.2473C86.0374 66.4422 83.7633 64.1682 80.9582 64.1682C78.153 64.1682 75.879 66.4422 75.879 69.2473C75.879 72.0525 78.153 74.3265 80.9582 74.3265Z" fill="url(#paint4_radial_823_3946)"/>
<path d="M64.7458 80.1848C66.5798 80.1848 68.0666 78.698 68.0666 76.864C68.0666 75.0299 66.5798 73.5432 64.7458 73.5432C62.9117 73.5432 61.4249 75.0299 61.4249 76.864C61.4249 78.698 62.9117 80.1848 64.7458 80.1848Z" fill="url(#paint5_radial_823_3946)"/>
<path d="M67.9209 94.2439C70.4822 94.2439 72.5584 92.1677 72.5584 89.6064C72.5584 87.0452 70.4822 84.9689 67.9209 84.9689C65.3597 84.9689 63.2834 87.0452 63.2834 89.6064C63.2834 92.1677 65.3597 94.2439 67.9209 94.2439Z" fill="url(#paint6_radial_823_3946)"/>
<path d="M21.8252 67.5828C24.7109 67.5828 27.0502 65.2435 27.0502 62.3578C27.0502 59.4721 24.7109 57.1328 21.8252 57.1328C18.9395 57.1328 16.6002 59.4721 16.6002 62.3578C16.6002 65.2435 18.9395 67.5828 21.8252 67.5828Z" fill="url(#paint7_radial_823_3946)"/>
<path d="M24.7544 43.8483C28.5031 43.8483 31.5419 40.8094 31.5419 37.0608C31.5419 33.3121 28.5031 30.2733 24.7544 30.2733C21.0058 30.2733 17.9669 33.3121 17.9669 37.0608C17.9669 40.8094 21.0058 43.8483 24.7544 43.8483Z" fill="url(#paint8_radial_823_3946)"/>
<path fill-rule="evenodd" clip-rule="evenodd" d="M73.9791 70.0813L69.9207 72.5979L69.1916 73.0479L68.4416 73.5146C68.9284 74.0549 69.2909 74.6953 69.5037 75.3907C69.7165 76.0861 69.7744 76.8197 69.6732 77.5399C69.5721 78.2601 69.3145 78.9494 68.9184 79.5593C68.5223 80.1693 67.9974 80.6851 67.3806 81.0704C66.7639 81.4557 66.0702 81.7013 65.3483 81.7897C64.6264 81.8782 63.894 81.8075 63.2024 81.5826C62.5108 81.3576 61.8769 80.9839 61.3452 80.4877C60.8135 79.9915 60.397 79.3849 60.1249 78.7104C59.0082 79.4188 58.0499 80.0396 57.3249 80.5229C51.5374 84.3979 45.5874 88.2646 37.8416 88.6271C27.7582 89.1021 13.2165 79.4479 10.9832 56.6438C9.27488 39.1604 22.7999 22.8021 32.2249 16.6979L32.6916 16.4063C31.317 14.839 30.5615 12.8242 30.5666 10.7396C30.5666 8.74795 31.2416 6.91462 32.3791 5.46045C30.0166 5.86878 28.4124 6.96878 25.6499 8.97295C17.4957 14.8813 12.8582 18.5396 6.55405 34.4563C0.25405 50.373 6.74988 69.4229 13.6374 79.8729C20.5207 90.3229 36.4916 96.8646 40.1999 97.8438C43.9124 98.8188 54.8041 101.16 59.2957 98.3313C60.7624 97.4063 61.9666 96.0979 63.0207 94.5771C61.965 93.538 61.2671 92.1901 61.0278 90.7282C60.7885 89.2664 61.0203 87.7663 61.6896 86.4449C62.3589 85.1234 63.4311 84.049 64.7512 83.3769C66.0713 82.7049 67.5709 82.47 69.0332 82.7063C70.3457 80.2521 71.8332 78.1646 73.8457 76.9896C74.8749 76.3896 75.9999 75.7771 77.1665 75.1604C76.2931 74.6008 75.5543 73.8548 75.0032 72.976C74.4521 72.0971 74.1023 71.1113 73.9791 70.0813Z" fill="url(#paint9_linear_823_3946)"/>
<path fill-rule="evenodd" clip-rule="evenodd" d="M47.6168 10.6673C47.6168 12.0756 47.2793 13.4048 46.6793 14.5756C50.8377 15.6006 55.0377 17.0673 61.7293 21.2673C63.4543 22.3506 67.3377 24.2964 70.8752 26.0714C72.746 27.0089 74.5168 27.8964 75.8168 28.5839C79.5585 30.1923 83.5418 31.9048 86.6335 33.3756C95.5502 37.6256 97.8543 44.2298 96.8085 51.9089C97.3296 52.0908 97.8087 52.3759 98.2171 52.7472C98.6256 53.1185 98.9549 53.5683 99.1854 54.0698C99.4159 54.5713 99.5429 55.1142 99.5588 55.6659C99.5747 56.2177 99.4791 56.7669 99.2778 57.2809C99.0765 57.7948 98.7736 58.2628 98.3872 58.657C98.0008 59.0512 97.5389 59.3633 97.0291 59.5748C96.5192 59.7864 95.972 59.8929 95.42 59.888C94.8681 59.8831 94.3228 59.7669 93.8168 59.5464C91.7835 61.6214 88.7668 63.0298 85.7918 64.1964C86.5289 64.9306 87.0934 65.8197 87.4444 66.7991C87.7953 67.7785 87.924 68.8237 87.821 69.8589L88.3127 69.6298L88.421 69.5798C89.9353 68.8963 91.4356 68.1823 92.921 67.4381L92.9835 67.4048C93.8585 66.9464 95.2043 66.2339 96.6585 65.1214C96.0752 66.5964 94.1585 70.2131 91.1918 72.8714C87.4835 76.1881 84.6502 76.9214 80.8377 77.7048C77.8585 78.3173 73.6377 81.9381 71.7793 83.7881C72.5443 84.2943 73.2018 84.9465 73.7144 85.7073C74.2269 86.468 74.5844 87.3224 74.7663 88.2214C74.9482 89.1205 74.951 90.0467 74.7745 90.9468C74.598 91.847 74.2456 92.7035 73.7377 93.4673C73.6168 93.9381 73.471 94.3839 73.321 94.8298C73.1769 95.2533 73.0463 95.6813 72.9293 96.1131L73.496 95.9464C76.0002 95.2089 80.8793 93.7798 91.1918 83.0756C102.35 71.4923 103.463 58.0089 103.938 50.8964C104.767 39.4673 97.321 32.2298 93.7543 29.6423C91.9002 28.2964 86.7335 26.0339 81.6502 23.8089L80.8168 23.4381L77.5877 22.0423C74.3668 20.6589 71.4502 19.4048 69.7543 18.4214L69.5835 18.3214C64.596 15.4381 56.7918 10.9256 50.2918 8.8881C49.7757 8.75735 49.2527 8.6558 48.7252 8.58393C48.2409 8.51763 47.7609 8.42302 47.2877 8.3006C47.5002 9.0506 47.6168 9.84643 47.6168 10.6714V10.6673Z" fill="url(#paint10_linear_823_3946)"/>
<path fill-rule="evenodd" clip-rule="evenodd" d="M61.8582 26.9821C55.9166 23.5363 48.3291 19.1404 40.7124 19.1404C35.1541 19.1404 28.9374 22.9696 23.9082 28.3613C25.441 28.2115 26.9861 28.4698 28.3868 29.1101C29.7874 29.7504 30.9937 30.7499 31.8832 32.0071C32.8416 30.4446 33.9499 28.8321 35.1041 27.7363C37.4124 25.5488 40.6416 24.6113 41.7457 24.6113C46.5332 24.6113 52.5416 27.7363 61.2957 33.3029C63.9457 34.9863 66.5457 36.3654 68.9207 37.6279C75.0957 40.9071 79.7541 43.3779 79.7541 48.2446C79.7541 53.7613 77.7832 55.3738 75.1499 56.8863C74.6374 57.1779 73.7499 57.7154 72.5874 58.4113C68.8916 60.6321 62.4499 64.4988 56.8374 67.4363C55.313 68.2562 53.8177 69.129 52.3541 70.0529C46.7166 73.5238 41.3624 76.8238 35.3166 72.5613C27.6999 67.1904 28.5624 57.6696 30.4166 52.6404C30.9582 51.1821 31.5582 49.8154 32.1166 48.5529C33.4832 45.4571 34.5749 42.9904 33.7416 41.3571C33.5144 40.9362 33.239 40.5433 32.9207 40.1863C32.372 41.6184 31.4564 42.8811 30.2659 43.8478C29.0754 44.8146 27.6516 45.4515 26.1374 45.6946C25.4624 48.3404 24.8916 50.9113 24.7207 52.6404C24.6249 53.5988 24.5041 54.5779 24.3707 55.5404C25.3473 55.9026 26.2347 56.4701 26.9731 57.2046C27.7115 57.9392 28.2837 58.8236 28.651 59.7982C29.0183 60.7728 29.1722 61.8149 29.1023 62.8541C29.0324 63.8932 28.7403 64.9053 28.2457 65.8219C27.7511 66.7385 27.0656 67.5383 26.2354 68.1673C25.4053 68.7963 24.4498 69.2398 23.4336 69.4679C22.4173 69.6959 21.3639 69.7033 20.3446 69.4894C19.3253 69.2755 18.3637 68.8453 17.5249 68.2279C19.9707 73.6529 23.3624 78.0613 26.8416 80.2779C34.7457 85.3196 42.7499 82.6113 45.2374 81.7696C45.358 81.7273 45.483 81.6856 45.6041 81.6446C47.2874 81.0988 55.9082 75.3613 63.2499 70.4738L66.6416 68.2154C72.7582 64.1571 80.4541 60.9363 83.9582 59.4696C84.8749 59.0863 85.5082 58.8196 85.7457 58.6946L85.8041 58.6654C87.4666 57.7779 92.0374 55.3404 92.5207 48.3904C92.9457 42.2779 86.3624 39.0404 82.8332 37.3071C82.3041 37.0446 81.8416 36.8196 81.4874 36.6238C80.3624 35.9988 78.3874 35.1113 75.9624 34.0154C73.2416 32.7821 69.9457 31.2946 66.6416 29.6404C65.2166 28.9279 63.6082 27.9946 61.8582 26.9821ZM88.4832 51.0779C88.8902 51.093 89.296 51.0259 89.6765 50.8806C90.0569 50.7353 90.4042 50.5147 90.6974 50.2322C90.9907 49.9496 91.2239 49.6108 91.3833 49.236C91.5426 48.8612 91.6247 48.4581 91.6247 48.0509C91.6247 47.6436 91.5426 47.2405 91.3833 46.8657C91.2239 46.491 90.9907 46.1521 90.6974 45.8696C90.4042 45.587 90.0569 45.3664 89.6765 45.2211C89.296 45.0758 88.8902 45.0087 88.4832 45.0238C87.6998 45.0528 86.9582 45.3845 86.4143 45.949C85.8703 46.5135 85.5664 47.2669 85.5664 48.0509C85.5664 48.8348 85.8703 49.5882 86.4143 50.1527C86.9582 50.7172 87.6998 51.0489 88.4832 51.0779Z" fill="url(#paint11_linear_823_3946)"/>
<path fill-rule="evenodd" clip-rule="evenodd" d="M21.0083 48.6825C20.6796 50.822 20.6152 52.9939 20.8167 55.1491C19.4377 55.3428 18.1431 55.9277 17.0863 56.8345C16.0295 57.7414 15.2549 58.9322 14.8542 60.2658C13.5375 54.5033 13.4167 48.3116 15.2208 42.6783C15.5458 41.6575 15.9375 40.6325 16.3875 39.6116C16.7898 40.9242 17.4948 42.1239 18.4458 43.114C19.3968 44.1041 20.5672 44.8568 21.8625 45.3116C21.4875 46.345 21.1917 47.47 21.0083 48.6866V48.6825Z" fill="url(#paint12_linear_823_3946)"/>
</g>
<defs>
<filter id="filter0_d_823_3946" x="0" y="0" width="108" height="108" filterUnits="userSpaceOnUse" color-interpolation-filters="sRGB">
<feFlood flood-opacity="0" result="BackgroundImageFix"/>
<feColorMatrix in="SourceAlpha" type="matrix" values="0 0 0 0 0 0 0 0 0 0 0 0 0 0 0 0 0 0 127 0" result="hardAlpha"/>
<feOffset dy="4"/>
<feGaussianBlur stdDeviation="2"/>
<feComposite in2="hardAlpha" operator="out"/>
<feColorMatrix type="matrix" values="0 0 0 0 0 0 0 0 0 0 0 0 0 0 0 0 0 0 0.25 0"/>
<feBlend mode="normal" in2="BackgroundImageFix" result="effect1_dropShadow_823_3946"/>
<feBlend mode="normal" in="SourceGraphic" in2="effect1_dropShadow_823_3946" result="shape"/>
</filter>
<linearGradient id="paint0_linear_823_3946" x1="55.6166" y1="-0.000498002" x2="97.7082" y2="26.9537" gradientUnits="userSpaceOnUse">
<stop stop-color="#83FFFF"/>
<stop offset="1" stop-color="#01F9FD"/>
</linearGradient>
<radialGradient id="paint1_radial_823_3946" cx="0" cy="0" r="1" gradientUnits="userSpaceOnUse" gradientTransform="translate(39.1585 8.10737) rotate(90) scale(9.1805 9.1805)">
<stop offset="0.592" stop-color="white"/>
<stop offset="0.62" stop-color="#8BEBFF"/>
</radialGradient>
<radialGradient id="paint2_radial_823_3946" cx="0" cy="0" r="1" gradientUnits="userSpaceOnUse" gradientTransform="translate(95.4168 54.7039) rotate(90) scale(3.69958 3.69959)">
<stop offset="0.592" stop-color="white"/>
<stop offset="0.62" stop-color="#8BEBFF"/>
</radialGradient>
<radialGradient id="paint3_radial_823_3946" cx="0" cy="0" r="1" gradientUnits="userSpaceOnUse" gradientTransform="translate(88.479 47.2292) rotate(90) scale(2.87746 2.87746)">
<stop offset="0.592" stop-color="white"/>
<stop offset="0.62" stop-color="#8BEBFF"/>
</radialGradient>
<radialGradient id="paint4_radial_823_3946" cx="0" cy="0" r="1" gradientUnits="userSpaceOnUse" gradientTransform="translate(80.9582 67.2015) rotate(90) scale(7.12517)">
<stop offset="0.592" stop-color="white"/>
<stop offset="0.62" stop-color="#8BEBFF"/>
</radialGradient>
<radialGradient id="paint5_radial_823_3946" cx="0" cy="0" r="1" gradientUnits="userSpaceOnUse" gradientTransform="translate(64.7499 75.5265) rotate(90) scale(4.65875 4.65875)">
<stop offset="0.592" stop-color="white"/>
<stop offset="0.62" stop-color="#8BEBFF"/>
</radialGradient>
<radialGradient id="paint6_radial_823_3946" cx="0" cy="0" r="1" gradientUnits="userSpaceOnUse" gradientTransform="translate(67.9251 87.7398) rotate(90) scale(6.50854 6.50854)">
<stop offset="0.592" stop-color="white"/>
<stop offset="0.62" stop-color="#8BEBFF"/>
</radialGradient>
<radialGradient id="paint7_radial_823_3946" cx="0" cy="0" r="1" gradientUnits="userSpaceOnUse" gradientTransform="translate(21.8294 60.2536) rotate(90) scale(7.33071 7.33071)">
<stop offset="0.592" stop-color="white"/>
<stop offset="0.62" stop-color="#8BEBFF"/>
</radialGradient>
<radialGradient id="paint8_radial_823_3946" cx="0" cy="0" r="1" gradientUnits="userSpaceOnUse" gradientTransform="translate(24.7544 34.3274) rotate(90) scale(9.52304)">
<stop offset="0.592" stop-color="white"/>
<stop offset="0.62" stop-color="#8BEBFF"/>
</radialGradient>
<linearGradient id="paint9_linear_823_3946" x1="32.8582" y1="5.46878" x2="67.1874" y2="96.2938" gradientUnits="userSpaceOnUse">
<stop stop-color="#0CD7FE"/>
<stop offset="0.5" stop-color="#03ACFF"/>
<stop offset="1" stop-color="#0272E1"/>
</linearGradient>
<linearGradient id="paint10_linear_823_3946" x1="32.8585" y1="5.47143" x2="67.1876" y2="96.2964" gradientUnits="userSpaceOnUse">
<stop stop-color="#0CD7FE"/>
<stop offset="0.5" stop-color="#03ACFF"/>
<stop offset="1" stop-color="#0272E1"/>
</linearGradient>
<linearGradient id="paint11_linear_823_3946" x1="92.5832" y1="44.7779" x2="13.8624" y2="56.6446" gradientUnits="userSpaceOnUse">
<stop stop-color="#1BE8F9"/>
<stop offset="0.5" stop-color="#05C3FD"/>
<stop offset="1" stop-color="#0047CB"/>
</linearGradient>
<linearGradient id="paint12_linear_823_3946" x1="92.5833" y1="44.7783" x2="13.8625" y2="56.645" gradientUnits="userSpaceOnUse">
<stop stop-color="#1BE8F9"/>
<stop offset="0.5" stop-color="#05C3FD"/>
<stop offset="1" stop-color="#0047CB"/>
</linearGradient>
<clipPath id="clip0_823_3946">
<rect width="100" height="100" fill="white" transform="translate(4)"/>
</clipPath>
</defs>
</svg>
