<svg width="100" height="100" viewBox="0 0 100 100" fill="none" xmlns="http://www.w3.org/2000/svg">
<g id="gitlab">
<g id="gitlab_2">
<path id="Vector" d="M49.9999 96.1175L68.4128 39.4487H31.5866L49.9995 96.1175H49.9999Z" fill="#E24329"/>
<path id="Vector_2" d="M49.9999 96.1171L31.5866 39.4482H5.78174L49.9999 96.1171Z" fill="#FC6D26"/>
<path id="Vector_3" d="M5.78175 39.4482L0.186431 56.6697C-0.0623543 57.4353 -0.0623886 58.26 0.186333 59.0256C0.435055 59.7913 0.919764 60.4585 1.57099 60.9317L49.9998 96.1174L5.78136 39.4486L5.78175 39.4482Z" fill="#FCA326"/>
<path id="Vector_4" d="M5.78174 39.4485H31.5866L20.4971 5.31709C19.9264 3.56078 17.4419 3.56117 16.8716 5.31709L5.78174 39.4485Z" fill="#E24329"/>
<path id="Vector_5" d="M49.9999 96.1171L68.4128 39.4482H94.218L49.9995 96.1171H49.9999Z" fill="#FC6D26"/>
<path id="Vector_6" d="M94.2179 39.4482L99.8132 56.6697C100.062 57.4354 100.062 58.2601 99.8132 59.0257C99.5644 59.7913 99.0796 60.4585 98.4283 60.9317L49.9999 96.1174L94.2179 39.4486V39.4482Z" fill="#FCA326"/>
<path id="Vector_7" d="M94.2181 39.4485H68.4128L79.5027 5.31709C80.0734 3.56078 82.5579 3.56117 83.1283 5.31709L94.2181 39.4485Z" fill="#E24329"/>
</g>
</g>
</svg>
