<svg width="100" height="100" viewBox="0 0 100 100" fill="none" xmlns="http://www.w3.org/2000/svg">
<mask id="mask0_811_220" style="mask-type:alpha" maskUnits="userSpaceOnUse" x="1" y="0" width="99" height="100">
<path fill-rule="evenodd" clip-rule="evenodd" d="M30.5067 0C46.7994 0 60.0134 13.244 60.0134 29.5867V40.8316H69.834C86.1267 40.8316 99.3408 54.0757 99.3408 70.4183C99.3408 86.761 86.1317 100 69.834 100H1V29.5817C1 13.249 14.2091 0 30.5067 0Z" fill="url(#paint0_linear_811_220)"/>
</mask>
<g mask="url(#mask0_811_220)">
<g filter="url(#filter0_f_811_220)">
<path d="M44.1408 119.951C80.9065 119.951 110.711 90.1463 110.711 53.3807C110.711 16.6151 80.9065 -13.1893 44.1408 -13.1893C7.37522 -13.1893 -22.4292 16.6151 -22.4292 53.3807C-22.4292 90.1463 7.37522 119.951 44.1408 119.951Z" fill="#4B73FF"/>
</g>
<g filter="url(#filter1_f_811_220)">
<path d="M51.4524 83.4173C98.5384 83.4173 136.709 53.6129 136.709 16.8473C136.709 -19.9184 98.5384 -49.7228 51.4524 -49.7228C4.3665 -49.7228 -33.8042 -19.9184 -33.8042 16.8473C-33.8042 53.6129 4.3665 83.4173 51.4524 83.4173Z" fill="#FF66F4"/>
</g>
<g filter="url(#filter2_f_811_220)">
<path d="M65.3562 62.7866C102.122 62.7866 131.926 36.6116 131.926 4.32295C131.926 -27.9657 102.122 -54.1407 65.3562 -54.1407C28.5906 -54.1407 -1.21387 -27.9657 -1.21387 4.32295C-1.21387 36.6116 28.5906 62.7866 65.3562 62.7866Z" fill="#FF0105"/>
</g>
<g filter="url(#filter3_f_811_220)">
<path d="M52.6368 56.8694C74.7487 56.8694 92.6738 38.9442 92.6738 16.8324C92.6738 -5.27942 74.7487 -23.2046 52.6368 -23.2046C30.525 -23.2046 12.5999 -5.27942 12.5999 16.8324C12.5999 38.9442 30.525 56.8694 52.6368 56.8694Z" fill="#FE7B02"/>
</g>
</g>
<defs>
<filter id="filter0_f_811_220" x="-52.2658" y="-43.0259" width="192.813" height="192.813" filterUnits="userSpaceOnUse" color-interpolation-filters="sRGB">
<feFlood flood-opacity="0" result="BackgroundImageFix"/>
<feBlend mode="normal" in="SourceGraphic" in2="BackgroundImageFix" result="shape"/>
<feGaussianBlur stdDeviation="14.9183" result="effect1_foregroundBlur_811_220"/>
</filter>
<filter id="filter1_f_811_220" x="-63.6408" y="-79.5594" width="230.186" height="192.813" filterUnits="userSpaceOnUse" color-interpolation-filters="sRGB">
<feFlood flood-opacity="0" result="BackgroundImageFix"/>
<feBlend mode="normal" in="SourceGraphic" in2="BackgroundImageFix" result="shape"/>
<feGaussianBlur stdDeviation="14.9183" result="effect1_foregroundBlur_811_220"/>
</filter>
<filter id="filter2_f_811_220" x="-31.0504" y="-83.9773" width="192.813" height="176.601" filterUnits="userSpaceOnUse" color-interpolation-filters="sRGB">
<feFlood flood-opacity="0" result="BackgroundImageFix"/>
<feBlend mode="normal" in="SourceGraphic" in2="BackgroundImageFix" result="shape"/>
<feGaussianBlur stdDeviation="14.9183" result="effect1_foregroundBlur_811_220"/>
</filter>
<filter id="filter3_f_811_220" x="-17.2367" y="-53.0412" width="139.747" height="139.747" filterUnits="userSpaceOnUse" color-interpolation-filters="sRGB">
<feFlood flood-opacity="0" result="BackgroundImageFix"/>
<feBlend mode="normal" in="SourceGraphic" in2="BackgroundImageFix" result="shape"/>
<feGaussianBlur stdDeviation="14.9183" result="effect1_foregroundBlur_811_220"/>
</filter>
<linearGradient id="paint0_linear_811_220" x1="34.0951" y1="17.5721" x2="64.0566" y2="99.96" gradientUnits="userSpaceOnUse">
<stop offset="0.025" stop-color="#FF8E63"/>
<stop offset="0.56" stop-color="#FF7EB0"/>
<stop offset="0.95" stop-color="#4B73FF"/>
</linearGradient>
</defs>
</svg>
